<svg xmlns="http://www.w3.org/2000/svg" xmlns:xlink="http://www.w3.org/1999/xlink" viewBox="0 0 146.78 136.51"><defs><style>.cls-1{fill:none;}.cls-2{isolation:isolate;}.cls-3{fill:url(#linear-gradient);}.cls-4{fill:url(#linear-gradient-2);}.cls-5{fill:url(#linear-gradient-3);}.cls-6{fill:url(#linear-gradient-4);}.cls-7{fill:url(#linear-gradient-5);}.cls-8{fill:url(#linear-gradient-6);}.cls-9{fill:url(#linear-gradient-7);}.cls-10{fill:url(#linear-gradient-8);}.cls-11,.cls-14,.cls-17,.cls-19,.cls-22,.cls-24{fill-rule:evenodd;}.cls-11{fill:url(#linear-gradient-9);}.cls-12{fill:url(#linear-gradient-10);}.cls-13{fill:#464747;}.cls-14{fill:url(#linear-gradient-11);}.cls-15,.cls-20,.cls-23,.cls-25{mix-blend-mode:multiply;}.cls-16{fill:url(#linear-gradient-12);}.cls-17{fill:url(#linear-gradient-13);}.cls-18{fill:#fff;}.cls-19{fill:#6b6b6b;}.cls-20{fill:url(#radial-gradient);}.cls-21{clip-path:url(#clip-path);}.cls-22{fill:url(#linear-gradient-14);}.cls-23{fill:url(#radial-gradient-2);}.cls-24{fill:url(#linear-gradient-15);}.cls-25{fill:url(#linear-gradient-16);}</style><linearGradient id="linear-gradient" x1="15.5" y1="49.7" x2="18.06" y2="49.7" gradientUnits="userSpaceOnUse"><stop offset="0" stop-color="#ff4454"/><stop offset="0.01" stop-color="#ff4454"/><stop offset="0.59" stop-color="#ff7c3b"/><stop offset="1" stop-color="#e5ca18"/></linearGradient><linearGradient id="linear-gradient-2" x1="204.92" y1="-10.98" x2="229.58" y2="-10.98" gradientTransform="matrix(-0.84, -0.55, 0.55, -0.84, 320.95, 227.98)" xlink:href="#linear-gradient"/><linearGradient id="linear-gradient-3" x1="-107.98" y1="328.79" x2="-88.18" y2="328.79" gradientTransform="translate(354.53 -61.51) rotate(61.83)" xlink:href="#linear-gradient"/><linearGradient id="linear-gradient-4" x1="96.1" y1="10.35" x2="98.77" y2="10.35" xlink:href="#linear-gradient"/><linearGradient id="linear-gradient-5" x1="107.14" y1="128.04" x2="109.52" y2="128.04" xlink:href="#linear-gradient"/><linearGradient id="linear-gradient-6" x1="-30.37" y1="128.44" x2="-21.63" y2="128.44" gradientTransform="translate(131.54 28.36) rotate(65.22)" xlink:href="#linear-gradient"/><linearGradient id="linear-gradient-7" x1="145" y1="125.87" x2="146.44" y2="125.87" xlink:href="#linear-gradient"/><linearGradient id="linear-gradient-8" x1="0.95" y1="261.35" x2="32.01" y2="261.35" gradientTransform="translate(191.05 -103.78) rotate(31.87)" xlink:href="#linear-gradient"/><linearGradient id="linear-gradient-9" x1="81.39" y1="136.19" x2="82.04" y2="136.19" xlink:href="#linear-gradient"/><linearGradient id="linear-gradient-10" x1="59.36" y1="224.74" x2="69.33" y2="224.74" gradientTransform="translate(122.01 -208.75) rotate(38.13)" xlink:href="#linear-gradient"/><linearGradient id="linear-gradient-11" x1="46.66" y1="458.08" x2="117.54" y2="458.08" gradientTransform="matrix(0.38, -0.93, 0.93, 0.38, -376.52, -40.6)" gradientUnits="userSpaceOnUse"><stop offset="0" stop-color="#ffc32c"/><stop offset="0.01" stop-color="#ffc32c"/><stop offset="1" stop-color="#ff64fb"/></linearGradient><linearGradient id="linear-gradient-12" x1="-18.22" y1="129.82" x2="100.38" y2="129.82" gradientTransform="translate(14.77 -60.84) rotate(-9.59)" gradientUnits="userSpaceOnUse"><stop offset="0" stop-color="#72d1ab"/><stop offset="0.01" stop-color="#72d1ab"/><stop offset="0.59" stop-color="#6dcccd"/><stop offset="1" stop-color="#517aac"/></linearGradient><linearGradient id="linear-gradient-13" x1="292.53" y1="-1121.16" x2="303.89" y2="-1121.16" gradientTransform="matrix(0, -1, -1, 0, -1051.96, 303.89)" xlink:href="#linear-gradient-12"/><radialGradient id="radial-gradient" cx="86.54" cy="73.57" r="59" gradientUnits="userSpaceOnUse"><stop offset="0.22"/><stop offset="0.4" stop-color="#515151"/><stop offset="0.58" stop-color="#9b9b9b"/><stop offset="0.73" stop-color="#d1d1d1"/><stop offset="0.84" stop-color="#f2f2f2"/><stop offset="0.9" stop-color="#fff"/></radialGradient><clipPath id="clip-path"><path class="cls-1" d="M77.75,17.92a39.91,39.91,0,1,0,39.91,39.91A40,40,0,0,0,77.75,17.92Z"/></clipPath><linearGradient id="linear-gradient-14" x1="205.74" y1="-1069.29" x2="217.1" y2="-1069.29" gradientTransform="matrix(0, -1, -1, 0, -1051.96, 303.89)" xlink:href="#linear-gradient-11"/><radialGradient id="radial-gradient-2" cx="-150.26" cy="410.3" r="22.45" gradientTransform="matrix(1.17, -0.57, 0.31, 0.63, 99.16, -258.85)" gradientUnits="userSpaceOnUse"><stop offset="0"/><stop offset="0.24" stop-color="#515151"/><stop offset="0.48" stop-color="#9b9b9b"/><stop offset="0.67" stop-color="#d1d1d1"/><stop offset="0.82" stop-color="#f2f2f2"/><stop offset="0.9" stop-color="#fff"/></radialGradient><linearGradient id="linear-gradient-15" x1="-1301.3" y1="-63.03" x2="-1262.47" y2="-63.03" gradientTransform="matrix(-1, 0.02, -0.02, -1, -1239.36, 52.23)" xlink:href="#linear-gradient-12"/><linearGradient id="linear-gradient-16" x1="40.33" y1="21.49" x2="44.57" y2="21.49" gradientUnits="userSpaceOnUse"><stop offset="0" stop-color="#ffc32c"/><stop offset="0.01" stop-color="#fff"/><stop offset="1" stop-color="#ff64fb"/></linearGradient></defs><title>1351 [Converted]</title><g class="cls-2"><g id="Layer_1" data-name="Layer 1"><path class="cls-3" d="M16.78,48.4a1.33,1.33,0,0,1,.92.38,1.27,1.27,0,0,1,.36.93,1.24,1.24,0,0,1-.36.9,1.33,1.33,0,0,1-.92.38,1.3,1.3,0,0,1-.91-.38,1.21,1.21,0,0,1-.37-.9,1.24,1.24,0,0,1,.37-.93,1.3,1.3,0,0,1,.91-.38Zm.37.91a.52.52,0,0,0-.37-.15.63.63,0,0,0-.39.15.55.55,0,0,0-.13.4.53.53,0,0,0,.13.37.63.63,0,0,0,.39.15.52.52,0,0,0,.37-.15.5.5,0,0,0,0-.77Z"/><path class="cls-4" d="M143.56,124a.38.38,0,0,1,.13.53.41.41,0,0,1-.55.11l-11.92-7.83a.39.39,0,0,1-.11-.55.35.35,0,0,1,.53-.09Zm-13.27-8.72a.36.36,0,0,1,.11.51.39.39,0,0,1-.53.13L128,114.72a.38.38,0,0,1-.08-.53.34.34,0,0,1,.5-.11ZM127,113.14a.39.39,0,0,1,.13.52.41.41,0,0,1-.55.12l-3.39-2.23a.39.39,0,0,1-.09-.53.36.36,0,0,1,.5-.11Z"/><path class="cls-5" d="M10.82.62a.35.35,0,0,1-.08-.47.33.33,0,0,1,.48-.08l13.7,9.47a3.28,3.28,0,0,1,.84,4.57,3.28,3.28,0,0,1-2.1,1.35,3.21,3.21,0,0,1-2.44-.53l-7.06-4.88a.34.34,0,0,1-.1-.47.35.35,0,0,1,.48-.1l7.06,4.87a2.58,2.58,0,0,0,3.6-.64,2.54,2.54,0,0,0,.41-2,2.62,2.62,0,0,0-1.07-1.67Z"/><path class="cls-6" d="M97.45,9a1.29,1.29,0,0,1,.94.38,1.37,1.37,0,0,1,0,1.89,1.35,1.35,0,0,1-2.29-.94,1.37,1.37,0,0,1,.4-.95,1.3,1.3,0,0,1,1-.38Zm.39.91a.58.58,0,0,0-.39-.16.68.68,0,0,0-.42.16.61.61,0,0,0-.16.42.62.62,0,0,0,.16.41.63.63,0,0,0,.42.17.54.54,0,0,0,.39-.17.58.58,0,0,0,.17-.41.57.57,0,0,0-.17-.42Z"/><path class="cls-7" d="M108.33,126.85a1.22,1.22,0,0,1,.83.34,1.17,1.17,0,0,1,.36.82,1.23,1.23,0,0,1-.36.87,1.21,1.21,0,0,1-1.68,0,1.22,1.22,0,0,1-.34-.87,1.15,1.15,0,0,1,.34-.82,1.21,1.21,0,0,1,.85-.34Zm.29.89a.36.36,0,0,0-.29-.14.36.36,0,0,0-.3.14.33.33,0,0,0-.12.27.39.39,0,0,0,.12.32.38.38,0,0,0,.3.13.38.38,0,0,0,.29-.13.44.44,0,0,0,.14-.32.38.38,0,0,0-.14-.27Z"/><path class="cls-8" d="M7.91,61a.37.37,0,0,1,.08.52.38.38,0,0,1-.53.09L4,59a.36.36,0,0,1-.07-.52.35.35,0,0,1,.52-.07ZM3.48,57.75a.37.37,0,0,1,.09.53.39.39,0,0,1-.54.07l-.83-.6a.39.39,0,0,1-.07-.54.38.38,0,0,1,.52-.08ZM1.82,56.49a.4.4,0,0,1,.07.55.39.39,0,0,1-.52.07L.15,56.19a.36.36,0,0,1-.07-.52.35.35,0,0,1,.52-.08Z"/><path class="cls-9" d="M145.72,125.15a.72.72,0,0,1,.5.21h0a.67.67,0,0,1,.22.51.7.7,0,0,1-.22.51h0a.68.68,0,0,1-1,0h0a.7.7,0,0,1-.22-.51.67.67,0,0,1,.22-.51h0a.72.72,0,0,1,.5-.21Zm0,.72Zm0,0Zm0,0h0m0,0h0"/><path class="cls-10" d="M54,119.19a.41.41,0,0,1-.13-.55.4.4,0,0,1,.53-.1L76.09,132a.35.35,0,0,1,.11.5.37.37,0,0,1-.52.14Zm24.09,15a.38.38,0,0,1-.1-.53.37.37,0,0,1,.51-.12l1.6,1a.38.38,0,0,1,.14.52.4.4,0,0,1-.54.13Z"/><path class="cls-11" d="M81.71,136.51a.33.33,0,0,0,.33-.32.32.32,0,0,0-.33-.32.32.32,0,0,0-.32.32.32.32,0,0,0,.32.32Z"/><path class="cls-12" d="M30,4.87a.16.16,0,0,1,0-.2.18.18,0,0,1,.19,0l7.65,6a.13.13,0,0,1,0,.19.12.12,0,0,1-.16,0Z"/><path class="cls-13" d="M87.25,110.08l0,0-4.09,4.09c0,.16.06.32.08.49l4.26-4.27h0l0,0,7.33-7.32-.49-.08Z"/><path class="cls-13" d="M84.72,107.55h0l3-3a10.08,10.08,0,0,0-3,3l0,0v0Z"/><path class="cls-13" d="M92.86,115.75l0,0h0l-5.51,5.51.33.23L93.14,116l0,0,8.42-8.43,0,0,0,0a4,4,0,0,0-.23-.34l-.12.12,0,0Z"/><path class="cls-13" d="M94.27,117.16l0,0-5.13,5.12.4.17,5-5,0,0,0,0,8-8c-.05-.14-.1-.27-.16-.4l-8.16,8.16Z"/><path class="cls-13" d="M91.45,114.34l0,0L85.81,120a3.83,3.83,0,0,0,.28.29l5.61-5.61,0,0,0,0,8.39-8.4,0,0,0,0,.19-.19-.3-.28-.18.18,0,0,0,0-8.39,8.4Z"/><path class="cls-13" d="M90,112.93l0,0-5.42,5.42.22.35,5.48-5.49,0,0,0,0,8.4-8.39,0,0,0,0,.07-.06-.33-.21h0l0,0,0,0-8.39,8.4Z"/><path class="cls-13" d="M98.49,121.38l0,0-.63.64a8.77,8.77,0,0,0,.84-.49l0,0c.24-.16.46-.32.69-.5l1.79-1.79a10.2,10.2,0,0,0,1-1.57l-3.67,3.67Z"/><path class="cls-13" d="M88.6,111.55h0l-4.93,4.93.15.41,5.09-5.09,0,0h0L97,103.68l-.41-.15-8,8Z"/><path class="cls-13" d="M86.1,109l0,0,6-6c-.22,0-.44.06-.66.1l-5.59,5.58,0,0,0,0-2.55,2.55c0,.23-.08.45-.1.67L86.07,109Z"/><path class="cls-13" d="M97.06,120h0l-3.14,3.14c.21,0,.42,0,.62-.06l2.83-2.82,0,0,5.82-5.83c0-.21,0-.41.06-.63l-6.2,6.2Z"/><path class="cls-13" d="M95.93,118.88l0,0,7.25-7.25c0-.16,0-.33-.08-.49l-7.42,7.43h0l0,0L91.25,123l.49.07Z"/><path class="cls-14" d="M16.17,58.17c-6.68-12.35,39.37-52,83.2-30.33C130,43,142.78,90.3,119.17,101.38c-21.13,9.87-95-28.45-103-43.21Z"/><g class="cls-15"><path class="cls-16" d="M44.64,88.56h0C33.06,85.6,25.42,81.79,22,77.25c-5.34-7-5.47-16.17-.37-25.73,4.32-8.12,12.25-16,21.74-21.49,10.22-6,21.72-9,32.39-8.58a64.58,64.58,0,0,1,13.49,2C119,31,136.62,58.58,139.64,75.72c1.14,6.5.14,11.28-2.74,13.13-5.14,3.27-19.91,5.35-38.55,5.41C78.93,94.32,58.85,92.19,44.64,88.56Zm44.53-65a64.86,64.86,0,0,0-13.46-2c-23.28-1-45.73,14.51-54,30-5.06,9.5-4.93,18.58.37,25.56,3.44,4.52,11,8.31,22.59,11.26C58.87,92,78.94,94.16,98.35,94.1,117,94,131.7,92,136.81,88.72c2.83-1.82,3.81-6.54,2.68-13C136.48,58.64,118.88,31.15,89.17,23.56Z"/></g><path class="cls-17" d="M74,2.35h0A5.5,5.5,0,0,0,66.36,1l-.58.42A5.48,5.48,0,0,0,64.41,9h0A5.47,5.47,0,0,0,72,10.38l.59-.4A5.5,5.5,0,0,0,74,2.35Z"/><path class="cls-18" d="M119.32,89.94v0l-1.75,1.75a1.77,1.77,0,0,0,0,.2l1.82-1.82h0l3.14-3.14-.21,0Z"/><path class="cls-18" d="M118.24,88.86h0l1.29-1.29a4.26,4.26,0,0,0-1.29,1.28v0h0Z"/><path class="cls-18" d="M121.72,92.37h0l-2.36,2.36.14.1,2.35-2.35h0l3.6-3.61h0v0l-.1-.14,0,0h0Z"/><path class="cls-18" d="M122.33,93h0l-2.2,2.2.17.07,2.15-2.15h0l3.44-3.44a.87.87,0,0,0-.07-.17L122.34,93Z"/><path class="cls-18" d="M121.12,91.77h0l-2.4,2.39.12.13,2.4-2.4h0v0l3.6-3.59h0l.08-.09-.12-.11-.08.07v0h0l-3.6,3.59Z"/><path class="cls-18" d="M120.52,91.16h0l-2.32,2.32.09.15,2.35-2.34v0h0l3.59-3.59,0,0h0l0,0-.15-.08h0l0,0-3.59,3.59Z"/><path class="cls-18" d="M124.14,94.78h0l-.27.27a3.07,3.07,0,0,0,.36-.2h0l.29-.21.77-.77a4.76,4.76,0,0,0,.43-.67l-1.57,1.57Z"/><path class="cls-18" d="M119.9,90.57h0l-2.11,2.11c0,.06,0,.12.07.18L120,90.68h0l3.46-3.46-.18-.07-3.41,3.42Z"/><path class="cls-18" d="M118.83,89.47h0l2.56-2.55-.29,0-2.39,2.39h0v0l-1.1,1.09c0,.09,0,.19,0,.28l1.26-1.25Z"/><path class="cls-18" d="M123.52,94.19h0l-1.34,1.34a1.24,1.24,0,0,0,.27,0l1.2-1.2,0,0,2.49-2.49,0-.27-2.66,2.66Z"/><path class="cls-18" d="M123,93.71v0l3.1-3.1,0-.21-3.18,3.18h0L121,95.47l.21,0Z"/><polygon class="cls-19" points="54.18 108.93 53.68 108.93 50.4 105.22 50.89 105.22 54.18 108.93"/><polygon class="cls-19" points="55.17 108.94 54.67 108.93 51.39 105.22 51.89 105.22 55.17 108.94"/><polygon class="cls-19" points="57.17 108.94 56.67 108.94 53.38 105.22 53.88 105.22 57.17 108.94"/><polygon class="cls-19" points="56.17 108.93 55.67 108.93 52.38 105.22 52.88 105.22 56.17 108.93"/><polygon class="cls-19" points="58.16 108.94 57.66 108.94 54.37 105.22 54.87 105.22 58.16 108.94"/><polygon class="cls-19" points="60.15 108.95 59.65 108.95 56.37 105.23 56.87 105.23 60.15 108.95"/><polygon class="cls-19" points="61.14 108.95 60.65 108.95 57.36 105.23 57.86 105.23 61.14 108.95"/><polygon class="cls-19" points="59.15 108.95 58.65 108.95 55.37 105.22 55.87 105.22 59.15 108.95"/><polygon class="cls-19" points="50.2 108.92 49.7 108.92 46.42 105.21 46.91 105.22 50.2 108.92"/><polygon class="cls-19" points="44.43 105.2 44.92 105.21 48.21 108.91 47.71 108.91 44.43 105.2"/><path class="cls-19" d="M71.29,105.27h.5l2.9,3.28a2.11,2.11,0,0,1-.31.21Z"/><polygon class="cls-19" points="49.2 108.92 48.71 108.92 45.42 105.21 45.92 105.21 49.2 108.92"/><path class="cls-19" d="M72.29,105.27h.49L75.16,108a1.85,1.85,0,0,1-.21.33Z"/><polygon class="cls-19" points="51.19 108.92 50.7 108.92 47.41 105.21 47.91 105.22 51.19 108.92"/><polygon class="cls-19" points="52.19 108.92 51.69 108.92 48.41 105.22 48.9 105.22 52.19 108.92"/><polygon class="cls-19" points="53.18 108.93 52.69 108.92 49.4 105.22 49.9 105.22 53.18 108.93"/><polygon class="cls-19" points="62.14 108.96 61.64 108.95 58.36 105.23 58.85 105.23 62.14 108.96"/><path class="cls-19" d="M43.21,108.87a1.8,1.8,0,0,1-.87-.41l-.34-.39a1.85,1.85,0,0,1-.3-.9Z"/><path class="cls-19" d="M74,108.91a3,3,0,0,1-.43.07l-3.28-3.71h.49Z"/><polygon class="cls-19" points="72.08 108.98 71.59 108.97 68.31 105.26 68.8 105.27 72.08 108.98"/><path class="cls-19" d="M45.22,108.91h-.49l-2.65-3a2.23,2.23,0,0,1,.26-.27Z"/><polygon class="cls-19" points="73.08 108.98 72.58 108.98 69.3 105.26 69.8 105.26 73.08 108.98"/><path class="cls-19" d="M44.23,108.91h-.5l-2-2.26a1.9,1.9,0,0,1,.14-.4Z"/><path class="cls-19" d="M46.22,108.91h-.5l-3.07-3.48a1.42,1.42,0,0,1,.36-.14Z"/><path class="cls-19" d="M75.36,107.12a1.4,1.4,0,0,1-.06.43l-2-2.27h.23A1.85,1.85,0,0,1,75.36,107.12Z"/><path class="cls-19" d="M47.22,108.91h-.5l-3.28-3.7a.37.37,0,0,1,.11,0h.38Z"/><polygon class="cls-19" points="63.13 108.96 62.63 108.95 59.35 105.23 59.85 105.23 63.13 108.96"/><polygon class="cls-19" points="65.12 108.96 64.63 108.96 61.34 105.24 61.84 105.24 65.12 108.96"/><polygon class="cls-19" points="66.12 108.96 65.62 108.96 62.34 105.25 62.84 105.25 66.12 108.96"/><polygon class="cls-19" points="64.13 108.96 63.63 108.96 60.35 105.24 60.84 105.24 64.13 108.96"/><polygon class="cls-19" points="67.11 108.96 66.62 108.96 63.33 105.25 63.83 105.25 67.11 108.96"/><polygon class="cls-19" points="70.09 108.97 69.6 108.97 66.32 105.25 66.81 105.25 70.09 108.97"/><polygon class="cls-19" points="71.09 108.98 70.59 108.97 67.31 105.26 67.81 105.26 71.09 108.98"/><polygon class="cls-19" points="69.1 108.97 68.61 108.97 65.32 105.25 65.82 105.25 69.1 108.97"/><polygon class="cls-19" points="68.11 108.97 67.61 108.96 64.33 105.25 64.82 105.25 68.11 108.97"/><path class="cls-20" d="M146.78,73.82a60,60,0,1,1-60-60A60,60,0,0,1,146.78,73.82Z"/><ellipse class="cls-18" cx="78.24" cy="57.29" rx="45.6" ry="45.01"/><g class="cls-21"><image width="1865" height="2301" transform="translate(46.63 17.56) scale(0.04)" xlink:href="../Downloads/BM.png"/></g><path class="cls-22" d="M22.13,89.14h0a5.5,5.5,0,0,0-7.63-1.37l-.59.4a5.51,5.51,0,0,0-1.37,7.64h0a5.49,5.49,0,0,0,7.63,1.37l.59-.41a5.5,5.5,0,0,0,1.37-7.63Z"/><path class="cls-23" d="M77.32,72.59c3.89,8-4.88,20.24-19.6,27.45S27.92,106.65,24,98.7s4.88-20.24,19.59-27.45S73.42,64.64,77.32,72.59Z"/><path class="cls-24" d="M26.62,83.32S16.27,73.1,36.83,70.69s31.56.23,23.09,10.93-28.71,26.67-32,23.06,7.84-8-1.28-21.36Z"/><path class="cls-25" d="M44.57,21.49a2.12,2.12,0,1,1-2.12-2.12A2.12,2.12,0,0,1,44.57,21.49Z"/><path class="cls-13" d="M16.39,68.78h0l-1,1a.5.5,0,0,0,0,.12l1-1h0l1.81-1.8-.12,0Z"/><path class="cls-13" d="M15.77,68.15h0l.74-.74a2.52,2.52,0,0,0-.75.74h0Z"/><path class="cls-13" d="M17.77,70.17h0l-1.36,1.36.08.06,1.35-1.36h0l2.08-2.08h0a.35.35,0,0,1-.05-.08l0,0h0Z"/><path class="cls-13" d="M18.12,70.52h0l-1.26,1.26.1,0,1.23-1.23h0l2-2,0-.1-2,2Z"/><path class="cls-13" d="M17.43,69.83h0L16,71.21l.07.08,1.38-1.39h0l2.07-2.07h0l0,0a.23.23,0,0,0-.07-.07l0,0h0l-2.07,2.07Z"/><path class="cls-13" d="M17.08,69.48h0l-1.33,1.33a.41.41,0,0,0,0,.09l1.35-1.35h0l2.06-2.07h0v0l-.08,0h0l-2.06,2.07Z"/><path class="cls-13" d="M19.16,71.56h0l-.15.16.21-.13h0l.17-.12.45-.44a2.55,2.55,0,0,0,.24-.39l-.9.91Z"/><path class="cls-13" d="M16.72,69.14h0l-1.21,1.21a.3.3,0,0,0,0,.1L16.8,69.2h0l2-2-.1,0-2,2Z"/><path class="cls-13" d="M16.11,68.51h0L17.58,67l-.16,0L16,68.43h0l-.63.63a1,1,0,0,0,0,.17l.72-.73Z"/><path class="cls-13" d="M18.81,71.22h0L18,72l.16,0,.69-.7h0l1.44-1.44s0-.1,0-.15l-1.53,1.52Z"/><path class="cls-13" d="M18.53,70.94h0l1.78-1.79a.5.5,0,0,0,0-.12l-1.83,1.83h0L17.38,72l.12,0Z"/></g></g></svg>